Coordinates
version=1
nRows=12
nColumns=24
inDegrees=yes

Units are S.I. units (second, meters, Newtons, ...)
Angles are in degrees.

endheader
time	pelvis_tilt	pelvis_list	pelvis_rotation	pelvis_tx	pelvis_ty	pelvis_tz	hip_flexion_r	hip_adduction_r	hip_rotation_r	knee_angle_r	ankle_angle_r	subtalar_angle_r	mtp_angle_r	hip_flexion_l	hip_adduction_l	hip_rotation_l	knee_angle_l	ankle_angle_l	subtalar_angle_l	mtp_angle_l	lumbar_extension	lumbar_bending	lumbar_rotation
      0.50000000	      4.53951810	      0.42489870	     -0.28127999	      0.58955852	      1.03280527	     -0.02162720	     19.62087800	     -4.38329730	    -10.18564382	    -19.93803583	      0.96216661	     -0.00000383	      0.00000000	    -14.39958136	      3.65985383	      0.03091528	     -2.13598540	      7.36854803	      0.00000008	      0.00000000	    -17.15216684	     -2.96835827	     -5.47310890
      0.51700000	      4.39814450	      0.98883364	     -0.19003789	      0.58825931	      1.02926323	     -0.02085067	     19.13298931	     -4.43620009	     -9.63979267	    -13.72419290	      0.68112413	     -0.00000286	      0.00000000	    -15.67857941	      4.16107617	      0.30085217	     -1.53665208	      7.80278760	      0.00000015	      0.00000000	    -17.04413385	     -3.44283234	     -5.66109259
      0.53300000	      4.22064825	      1.55410344	      0.13997761	      0.58721521	      1.02534580	     -0.02035488	     18.65980510	     -4.63527873	     -8.77231365	     -8.14739171	      0.68979906	     -0.00000191	      0.00000000	    -16.79938260	      4.57762846	      0.87850703	     -1.22417855	      8.38325106	      0.00000018	      0.00000000	    -16.87468256	     -3.84058352	     -5.79801680
      0.55000000	      4.13810046	      2.14721191	      0.04582147	      0.58675516	      1.02137170	     -0.01945926	     18.21576471	     -4.86627972	     -7.23907607	     -3.51807828	      0.93733135	     -0.00000104	      0.00000000	    -18.11129056	      5.13020748	      1.06743874	     -0.81150366	      8.82742322	      0.00000030	      0.00000000	    -16.75199299	     -4.25852623	     -5.83714659
      0.56700000	      4.07114969	      2.58864709	      0.02198399	      0.58588643	      1.01745659	     -0.01872721	     18.13385329	     -5.10632427	     -5.78214902	     -0.55140305	      1.44578837	     -0.00000076	      0.00000000	    -19.21324478	      5.49736221	      1.36632788	     -0.82774281	      9.43600051	      0.00000042	      0.00000000	    -16.68676412	     -4.48795548	     -5.67587199
      0.58300000	      3.91508046	      2.90818772	      0.68648258	      0.58427057	      1.01397961	     -0.01855259	     18.27990394	     -5.47559646	     -5.41157285	      0.98065369	      1.74186636	     -0.00000035	      0.00000000	    -19.74346766	      5.48818301	      2.27320481	     -1.72812552	     10.32216026	      0.00000062	      0.00000000	    -16.78814840	     -4.32210164	     -6.01826375
      0.60000000	      3.90228041	      2.91924327	      0.73878910	      0.58493387	      1.01124818	     -0.01666873	     18.54398174	     -5.30457269	     -4.89305276	      0.84074194	      1.96603829	     -0.00000055	      0.00000000	    -20.67559929	      5.26843916	      2.52945878	     -2.34248474	     10.88934629	      0.00000087	      0.00000000	    -16.63953964	     -4.11244714	     -5.92491186
      0.61700000	      3.80519384	      2.67185619	      1.02150427	      0.58552756	      1.00891046	     -0.01428906	     19.19896435	     -4.91782412	     -4.95051160	     -0.87841688	      1.71039322	     -0.00000091	      0.00000000	    -21.16981407	      4.66547861	      2.87347134	     -3.59784126	     11.61347143	      0.00000122	      0.00000000	    -16.54389675	     -3.58287323	     -5.97877566
      0.63300000	      3.76969646	      2.63214469	      1.55405653	      0.58647838	      1.00736376	     -0.01188680	     19.90822506	     -4.84044859	     -5.30295664	     -3.62286545	      1.06489783	     -0.00000157	      0.00000000	    -21.54830505	      4.16161501	      3.55191490	     -5.17616586	     12.09844022	      0.00000159	      0.00000000	    -16.52476868	     -3.23331517	     -6.27202291
      0.65000000	      3.64463161	      2.48108254	      2.04180430	      0.58796685	      1.00609194	     -0.00888512	     20.72045691	     -4.64782386	     -5.75960505	     -6.82801257	      0.05921985	     -0.00000216	      0.00000000	    -21.72252376	      3.54858446	      4.20701373	     -6.96720346	     12.41057940	      0.00000194	      0.00000000	    -16.31272481	     -2.83821390	     -6.63783621
      0.66700000	      3.50275895	      2.41572435	      2.42957314	      0.58992934	      1.00550433	     -0.00636134	     21.42899599	     -4.59157072	     -6.05547608	    -10.02372071	     -1.03876267	     -0.00000263	      0.00000000	    -21.66646567	      3.13909919	      4.82759215	     -9.18028945	     12.40818349	      0.00000242	      0.00000000	    -16.01719730	     -2.35143938	     -6.82798263
      0.68300000	      3.58057040	      2.37195337	      2.55590995	      0.59160746	      1.00567332	     -0.00354381	     22.04602090	     -4.50598074	     -6.01051620	    -13.58574836	     -1.64426567	     -0.00000304	      0.00000000	    -21.47097483	      2.88292458	      5.21769380	    -12.06003262	     12.11845224	      0.00000291	      0.00000000	    -15.92298104	     -1.87610032	     -6.71515881
